<?xml version="1.0" encoding="utf-8"?>
<!-- Generator: Adobe Illustrator 16.0.0, SVG Export Plug-In . SVG Version: 6.00 Build 0)  -->
<!DOCTYPE svg PUBLIC "-//W3C//DTD SVG 1.1//EN" "http://www.w3.org/Graphics/SVG/1.1/DTD/svg11.dtd">
<svg version="1.1" id="Capa_1" xmlns="http://www.w3.org/2000/svg" xmlns:xlink="http://www.w3.org/1999/xlink" x="0px" y="0px"
	 width="163.481px" height="179.181px" viewBox="0 0 163.481 179.181" enable-background="new 0 0 163.481 179.181"
	 xml:space="preserve">
<g>
	<polygon fill="#793FDF" points="145.15,176.008 19.865,176.008 19.865,70.027 82.498,30.253 145.15,70.027 	"/>
	<polygon opacity="0.2" points="145.15,176.008 19.865,176.008 19.865,70.027 82.498,30.253 145.15,70.027 	"/>
	<g>
		<rect x="26.93" y="25.212" fill="#ECECEC" width="111.154" height="142.687"/>
		<polygon fill="#793FDF" points="75.738,110.583 50.29,84.822 58.839,76.375 73.706,91.422 104.59,43.003 114.725,49.465 		"/>
	</g>
	<path fill="#793FDF" d="M145.15,96.556v79.452H19.865V96.556c5.381,3.048,10.668,6.246,15.992,9.369
		c5.306,3.18,10.611,6.359,15.879,9.596c5.871,3.575,11.74,7.206,17.592,10.875c0.057-0.038,0.132-0.075,0.188-0.113
		c-0.056,0.038-0.094,0.094-0.149,0.132c4.384,2.728,8.767,5.475,13.151,8.222c4.364-2.747,8.748-5.513,13.132-8.222
		c-0.057-0.038-0.094-0.094-0.15-0.132c0.057,0.038,0.132,0.075,0.188,0.094c5.851-3.649,11.702-7.28,17.591-10.874
		c5.269-3.218,10.556-6.416,15.861-9.577C134.482,102.802,139.769,99.604,145.15,96.556z"/>
	<g opacity="0.2">
		<path d="M145.15,96.556c-5.062,3.556-10.216,6.961-15.315,10.461c-5.136,3.424-10.291,6.849-15.465,10.234
			c-5.399,3.537-10.818,7.037-16.237,10.518c-0.169,0.113-0.319,0.226-0.489,0.339c-4.797,3.066-9.613,6.134-14.431,9.2
			l-0.715,0.433l-0.695-0.433c-4.816-3.066-9.615-6.134-14.412-9.219c-0.17-0.095-0.339-0.207-0.508-0.32
			c-5.438-3.48-10.856-6.98-16.256-10.536c-5.155-3.367-10.311-6.792-15.447-10.216c-5.098-3.5-10.253-6.905-15.314-10.461
			c5.381,3.048,10.668,6.246,15.992,9.369c5.306,3.18,10.611,6.359,15.879,9.596c5.871,3.575,11.74,7.206,17.592,10.875
			c0.02,0,0.02,0,0.038,0.019c4.384,2.728,8.767,5.475,13.151,8.222c4.364-2.747,8.748-5.513,13.132-8.222
			c0.02-0.038,0.02-0.038,0.038-0.038c5.851-3.649,11.702-7.28,17.591-10.874c5.269-3.218,10.556-6.416,15.861-9.577
			C134.482,102.802,139.769,99.604,145.15,96.556z"/>
		<path d="M69.515,126.282c-0.056,0.038-0.094,0.094-0.149,0.132c-0.659,0.564-1.317,1.129-1.976,1.675
			c-3.143,2.652-6.359,5.192-9.633,7.657c-3.988,3.048-8.072,5.964-12.173,8.861c-4.12,2.841-8.26,5.662-12.493,8.371
			c-4.233,2.711-8.504,5.363-12.926,7.789c3.801-3.33,7.752-6.434,11.74-9.463c4.008-3.047,8.09-5.964,12.174-8.861
			c4.139-2.859,8.277-5.682,12.511-8.391c3.368-2.164,6.792-4.29,10.292-6.284c0.809-0.471,1.617-0.922,2.445-1.373
			C69.384,126.357,69.459,126.32,69.515,126.282z"/>
		<path d="M144.849,160.768c-4.422-2.426-8.711-5.078-12.926-7.789c-4.233-2.709-8.372-5.53-12.512-8.371
			c-4.102-2.897-8.185-5.813-12.173-8.861c-3.255-2.465-6.472-4.986-9.596-7.639c-0.677-0.564-1.335-1.129-1.994-1.693
			c-0.057-0.038-0.094-0.094-0.15-0.132c0.057,0.038,0.132,0.075,0.188,0.094c0.828,0.471,1.637,0.922,2.445,1.393
			c3.5,1.994,6.905,4.12,10.292,6.284c4.233,2.709,8.372,5.531,12.492,8.391c4.102,2.897,8.185,5.814,12.174,8.861
			C137.097,154.334,141.048,157.438,144.849,160.768z"/>
	</g>
	<g>
		<g>
			<g>
				<path fill="#1A2E35" d="M28.906,18.409c0,0-0.044-0.259-0.098-0.711c-0.043-0.453-0.134-1.099-0.191-1.875
					c-0.128-1.552-0.213-3.621-0.219-5.689c0-2.069,0.08-4.138,0.206-5.69c0.055-0.776,0.146-1.422,0.188-1.875
					c0.053-0.453,0.097-0.711,0.097-0.711s0.045,0.259,0.098,0.711c0.044,0.453,0.136,1.099,0.192,1.875
					c0.128,1.552,0.214,3.621,0.218,5.689c-0.001,2.069-0.082,4.138-0.207,5.69c-0.056,0.776-0.145,1.422-0.188,1.875
					C28.949,18.15,28.906,18.409,28.906,18.409z"/>
			</g>
		</g>
		<g>
			<g>
				<path fill="#1A2E35" d="M21.873,21.036c0,0-0.214-0.151-0.572-0.434c-0.35-0.289-0.871-0.682-1.461-1.19
					c-1.188-1.007-2.711-2.409-4.178-3.868c-1.463-1.463-2.869-2.983-3.878-4.169c-0.51-0.588-0.903-1.109-1.193-1.459
					c-0.282-0.357-0.435-0.571-0.435-0.571s0.215,0.151,0.572,0.434c0.351,0.289,0.873,0.682,1.461,1.19
					c1.188,1.006,2.711,2.41,4.178,3.869c1.463,1.464,2.868,2.985,3.877,4.17c0.51,0.588,0.904,1.108,1.193,1.458
					C21.72,20.822,21.873,21.036,21.873,21.036z"/>
			</g>
		</g>
		<g>
			<g>
				<path fill="#1A2E35" d="M18.757,27.867c0,0-0.259,0.044-0.711,0.098c-0.453,0.043-1.1,0.134-1.875,0.191
					c-1.552,0.128-3.621,0.214-5.689,0.22c-2.069-0.001-4.139-0.081-5.691-0.207c-0.775-0.055-1.422-0.145-1.875-0.188
					c-0.452-0.053-0.711-0.097-0.711-0.097s0.259-0.044,0.711-0.098c0.453-0.043,1.1-0.135,1.875-0.191
					c1.552-0.129,3.621-0.213,5.689-0.219c2.069,0.001,4.139,0.083,5.691,0.208c0.775,0.056,1.422,0.145,1.875,0.187
					C18.499,27.823,18.757,27.867,18.757,27.867z"/>
			</g>
		</g>
		<g>
			<g>
				<path fill="#1A2E35" d="M21.384,34.9c0,0-0.152,0.214-0.434,0.572c-0.289,0.351-0.683,0.872-1.191,1.461
					c-1.006,1.188-2.408,2.711-3.867,4.178c-1.464,1.462-2.984,2.869-4.17,3.877c-0.588,0.51-1.109,0.903-1.459,1.193
					c-0.357,0.283-0.571,0.435-0.571,0.435s0.151-0.214,0.434-0.572c0.289-0.351,0.682-0.873,1.19-1.461
					c1.006-1.188,2.409-2.711,3.869-4.178c1.463-1.462,2.984-2.867,4.17-3.876c0.588-0.51,1.108-0.904,1.459-1.194
					C21.17,35.052,21.384,34.9,21.384,34.9z"/>
			</g>
		</g>
		<g>
			<g>
				<path fill="#1A2E35" d="M135.361,18.409c0,0-0.043-0.259-0.096-0.711c-0.043-0.453-0.132-1.099-0.188-1.875
					c-0.125-1.552-0.207-3.621-0.208-5.69c0.005-2.069,0.089-4.138,0.218-5.689c0.057-0.776,0.148-1.422,0.191-1.875
					c0.055-0.452,0.099-0.711,0.099-0.711s0.044,0.259,0.097,0.711c0.043,0.453,0.133,1.099,0.188,1.875
					c0.126,1.552,0.206,3.621,0.207,5.69c-0.006,2.069-0.092,4.138-0.219,5.689c-0.058,0.776-0.148,1.422-0.191,1.875
					C135.405,18.15,135.361,18.409,135.361,18.409z"/>
			</g>
		</g>
		<g>
			<g>
				<path fill="#1A2E35" d="M142.393,21.036c0,0,0.151-0.214,0.435-0.571c0.291-0.35,0.685-0.871,1.194-1.458
					c1.009-1.186,2.414-2.707,3.876-4.17c1.467-1.459,2.989-2.863,4.178-3.869c0.588-0.508,1.11-0.901,1.461-1.19
					c0.357-0.282,0.572-0.434,0.572-0.434s-0.152,0.214-0.435,0.571c-0.29,0.35-0.684,0.871-1.193,1.459
					c-1.009,1.186-2.415,2.706-3.877,4.169c-1.468,1.459-2.991,2.861-4.179,3.868c-0.589,0.508-1.109,0.901-1.461,1.19
					C142.607,20.885,142.393,21.036,142.393,21.036z"/>
			</g>
		</g>
		<g>
			<g>
				<path fill="#1A2E35" d="M145.508,27.867c0,0,0.259-0.043,0.712-0.096c0.452-0.042,1.099-0.131,1.875-0.187
					c1.552-0.125,3.621-0.207,5.689-0.208c2.07,0.005,4.139,0.09,5.69,0.219c0.776,0.057,1.423,0.148,1.875,0.191
					c0.452,0.054,0.711,0.098,0.711,0.098s-0.259,0.044-0.712,0.097c-0.452,0.042-1.099,0.133-1.875,0.188
					c-1.552,0.126-3.621,0.206-5.689,0.207c-2.07-0.006-4.139-0.092-5.69-0.22c-0.776-0.057-1.423-0.148-1.875-0.191
					C145.767,27.911,145.508,27.867,145.508,27.867z"/>
			</g>
		</g>
		<g>
			<g>
				<path fill="#1A2E35" d="M142.881,34.9c0,0,0.214,0.152,0.571,0.435c0.35,0.29,0.87,0.684,1.458,1.194
					c1.186,1.009,2.706,2.414,4.171,3.876c1.459,1.467,2.862,2.989,3.869,4.178c0.508,0.588,0.9,1.11,1.189,1.461
					c0.282,0.358,0.434,0.572,0.434,0.572s-0.214-0.152-0.571-0.435c-0.351-0.29-0.871-0.684-1.459-1.193
					c-1.187-1.008-2.706-2.415-4.169-3.877c-1.459-1.467-2.861-2.991-3.869-4.178c-0.508-0.589-0.9-1.11-1.189-1.461
					C143.033,35.114,142.881,34.9,142.881,34.9z"/>
			</g>
		</g>
	</g>
</g>
</svg>
